<svg xmlns="http://www.w3.org/2000/svg" viewBox="0 0 181.93 184.52"><defs><style>.cls-1{fill:#2e384d;}.cls-2{fill:#2cc2a5;}.cls-3{fill:#2e5bff;}</style></defs><title>자산 2</title><g id="레이어_2" data-name="레이어 2"><g id="레이어_1-2" data-name="레이어 1"><g id="그룹_151" data-name="그룹 151"><g id="그룹_145" data-name="그룹 145"><path id="패스_82" data-name="패스 82" class="cls-1" d="M11.53,183.52H0V132.27H11.53Z"/><path id="패스_83" data-name="패스 83" class="cls-1" d="M63.57,183.52H53.12v-4c-2.76,3.62-5.68,5-10.22,5-9.76,0-16.29-7.76-16.29-19.51s6.61-19.67,16.6-19.67a12.07,12.07,0,0,1,9.45,3.84v-16.9H63.57Zm-26.2-18.6c0,6.54,3.08,10.76,7.84,10.76s7.84-4.3,7.84-10.6c0-6.61-3.07-10.91-7.84-10.91s-7.84,4.23-7.84,10.76Z"/><path id="패스_84" data-name="패스 84" class="cls-1" d="M82.51,141.26H71.6v-9H82.51Zm0,42.27H71.6V146.41H82.51Z"/><path id="패스_85" data-name="패스 85" class="cls-1" d="M125.36,183.52H114.91v-4c-2.76,3.62-5.68,5-10.22,5-9.75,0-16.29-7.76-16.29-19.51S95,145.34,105,145.34a12.09,12.09,0,0,1,9.46,3.84v-16.9h10.91Zm-26.2-18.6c0,6.54,3.08,10.76,7.84,10.76s7.84-4.3,7.84-10.6c0-6.61-3.07-10.91-7.84-10.91s-7.84,4.23-7.84,10.76Z"/><path id="패스_86" data-name="패스 86" class="cls-1" d="M153.5,141.26H142.58v-9h10.91Zm0,42.27H142.58V146.41h10.91Z"/><path id="패스_87" data-name="패스 87" class="cls-1" d="M181.93,151.75h-6.69V169c0,5.84.23,6.3,2.77,6.3h3.92v8.23h-6.69c-4.76,0-7.14-.7-8.76-2.46s-2.15-3.85-2.15-9.6V151.76h-5.22v-7.69h5.22v-11.8h10.91v11.8h6.69Z"/></g><g id="그룹_146" data-name="그룹 146"><path id="패스_81" data-name="패스 81" class="cls-2" d="M53.17,77.7,39.53,64.06,78.39,25.21,92,38.85Z"/><path id="패스_80" data-name="패스 80" class="cls-3" d="M129.59,26,117.23,38.36A27.81,27.81,0,1,1,78.09,77.89c-.06-.07-.13-.13-.2-.2L65.53,90.05a45.3,45.3,0,0,0,64.28-63.84l-.22-.22Z"/><rect id="사각형_35" data-name="사각형 35" class="cls-2" x="95.23" y="3.47" width="17.8" height="19.29" transform="translate(21.23 77.47) rotate(-45)"/></g></g></g></g></svg>